<?xml version="1.0" encoding="UTF-8"?> <svg xmlns="http://www.w3.org/2000/svg" viewBox="0 0 1010.12 807.8"><defs><style>.cls-1,.cls-16{fill:none;stroke-linecap:round;}.cls-1{stroke:#faefb8;stroke-linejoin:round;stroke-width:67.28px;}.cls-2,.cls-3{fill:#faefb8;}.cls-10,.cls-11,.cls-13,.cls-14,.cls-15,.cls-2,.cls-5,.cls-6,.cls-7,.cls-8,.cls-9{fill-rule:evenodd;}.cls-4{fill:#44a3a2;}.cls-5{fill:#865840;}.cls-6{fill:#484849;}.cls-7{fill:#303133;}.cls-8{fill:#7dc0c0;}.cls-12,.cls-9{fill:#fff;}.cls-10{fill:#45a5a5;}.cls-11{fill-opacity:0.1;}.cls-13{fill:#e4aa8e;}.cls-14{fill:#cb977c;}.cls-15{fill:#cf294b;}.cls-16{stroke:#fff;stroke-miterlimit:10;stroke-width:5.64px;}</style></defs><g id="Layer_2" data-name="Layer 2"><g id="Layer_1-2" data-name="Layer 1"><path class="cls-1" d="M976.48,558.58c0-266.76-211.06-483-471.42-483S33.64,291.82,33.64,558.58"></path><path class="cls-2" d="M497.24,167.49a8,8,0,0,0-8.15,7.54l-20,338.07a45.07,45.07,0,0,1,9.2-4,44.51,44.51,0,0,1,37.59,5.62c-.87-.57-1.76-1.1-2.66-1.61l-8.1-337.81A8,8,0,0,0,497.24,167.49Z"></path><circle class="cls-3" cx="492.48" cy="497.13" r="61.45"></circle><circle class="cls-4" cx="505.06" cy="71.41" r="71.41" transform="translate(97.44 378.05) rotate(-45)"></circle><g id="Bottom_Standing_Sweatpants" data-name="Bottom/Standing/Sweatpants"><polygon id="Leg" class="cls-5" points="735.55 360.19 666.95 596.6 634.68 774.09 602.29 774.09 634.62 360.19 735.55 360.19"></polygon><path id="Leg-2" data-name="Leg" class="cls-5" d="M766.38,360.19c-4.78,122.81-2.9,189.8-1.82,201s7.15,85.89,48.6,216.7H779.47c-54.89-125.49-74.05-200.22-80.35-216.7s-24.89-83.46-52-200.95Z"></path><path id="Pant" class="cls-6" d="M737,360.19q-26.76,122-92.59,389.56H597.06c-3.5-183.07,11.38-303.56,37.16-389.56Z"></path><path id="Pant-2" data-name="Pant" class="cls-7" d="M766.62,360.19C761.93,483,774.08,604,811.72,751.66H761.18c-55-123.62-94.41-244-121.34-391.47Z"></path><g id="Accessories_Shoe_Flat-Simple" data-name="Accessories/Shoe/Flat-Simple"><path id="Shoe" class="cls-7" d="M818,802.19l-1.86-30q-16.32,4.77-40.89-3.75Q748.8,787.19,708.7,794h0a3.74,3.74,0,0,0-3.06,4.32,2.74,2.74,0,0,0,.09.39l2.57,9.06H814.24Z"></path></g><g id="Accessories_Shoe_Flat-Simple-2" data-name="Accessories/Shoe/Flat-Simple"><path id="Shoe-2" data-name="Shoe" class="cls-7" d="M641.91,802.19l-1.86-30q-16.32,4.77-40.89-3.75Q572.74,787.19,532.65,794h0a3.74,3.74,0,0,0-3.06,4.32,2.74,2.74,0,0,0,.09.39l2.57,9.06H638.19Z"></path></g></g><path class="cls-5" d="M821.75,307.94l-41.47.16q38.4,124,41.47,131.57c4.59,11.38-5.13,28.72-9.28,38,13.53,6.06,12.09-16.37,29.16-8.43,15.58,7.25,27.44,20.39,45.44,9.28,2.22-1.37,4.64-6.51-1.22-10.53-14.6-10-34.87-10.54-37.72-16.31C844.26,443.85,835,384.59,821.75,307.94Z"></path><g id="Head_Front_Short-2" data-name="Head/Front/Short-2"><g id="Head"><path class="cls-5" d="M722.59,114.33c9.15-10.73,15.34-23.89,14.3-38.63-3-42.47-62.09-33.12-73.59-11.69s-10.14,75.8,4.73,79.64c5.92,1.52,18.55-2.22,31.4-10l-8.07,57.06H739Z"></path></g><path id="Hair" class="cls-7" d="M726.25,123.89c6-26.6,23-44.72,20.41-56.61Q744.07,55.4,732.8,52.5q-5.84-23.56-37.58-20c-31.75,3.52-51.13,16.7-42.76,45.72,7.7,0,17-2.78,29.82,2q6.12,2.26,8.75,14.07h5.8q8.45-14,16.66-10.29t3.73,18l2.86,21.93Z"></path></g><g id="Body_Hoodie" data-name="Body/Hoodie"><path id="Skin" class="cls-5" d="M586.62,330.08l-63.3,46.48q-25.76,6.94-43,17.29c-2.72,2.48-6,7.5,5.28,6.64s23.19-1.28,24.75,2.57-5.28,8.45-2.13,13.65q3.15,5.19,29.74-26l62.68-26Z"></path><path id="Coat-Back" class="cls-8" d="M711.81,157.67l-17.16-2.94c-63.66,55-89.82,160.66-167.86,216.63l18.79,23.29C681,377.88,714.52,249,711.81,157.67Z"></path><path id="Shirt" class="cls-9" d="M786.62,373.32H634.78c-6.93,0-5.63-10-4.62-15.08C641.73,299.9,686.92,237,686.92,154l43.79-6.87C766.94,205.35,779.46,277.08,786.62,373.32Z"></path><path id="Coat-Front" class="cls-10" d="M785.4,204.36q9.54-2.75,15.11-12.8c16-28.88,10.22-44.78-6.88-50s-32.37,5.54-59.62,5.54a26.83,26.83,0,0,0-4.07.28l-13.72.78q-59,200-32.54,266.84h119.5a407.28,407.28,0,0,0,20.33,41.67h32.56Q860.68,308,785.4,204.36Z"></path><path id="Shade" class="cls-11" d="M777.16,346.52Q771.52,393.7,758.83,415h44.35Q790.79,386.1,777.16,346.52Z"></path></g><path class="cls-12" d="M507.64,38c7.22,0,9.07,3.7,9.07,7.58v14.1c0,4.07-5.47,7.88-5.47,9.92v4.15S532,80.89,532,86.49V96.65h-54V86.49c0-6,20.87-12.75,20.87-12.75V69.59c0-2-5.54-5.73-5.54-9.92V45.57c0-3.88,1.85-7.58,9.07-7.58Z"></path><g id="humaaans_standing-3" data-name="humaaans/standing-3"><g id="humaaan-12"><g id="Head_Front_Pony" data-name="Head/Front/Pony"><g id="Head-2" data-name="Head"><path class="cls-13" d="M298.54,144.05c-5.57-11.71-7.94-24.88-3.51-37.73,12.76-37,63.07-14.65,68.18,7.14s-9,69.77-23.16,69.64c-5.63,0-16-6.39-25.54-16.33l-6.42,52.63-42.32-11.34Z"></path></g><path id="hair-2" data-name="hair" class="cls-7" d="M316.38,143.6c-8.67,9.45-18.81,15.61-26.72,13.49-15-4-20.32-27-14.54-48.58.21-.76.42-1.51.65-2.25C257,112.91,239,131.13,217.92,125.49c-28.62-7.66-24.51-68.42,15.46-57.71,27.19,7.29,39.5,14.83,49.45,23.78A38.74,38.74,0,0,1,297,78.68a15.7,15.7,0,0,1,5.47-2,22.23,22.23,0,0,1,4.26-.62c7.63-.69,18.18.21,29.53,2.83q3.18.73,6.2,1.58a19.91,19.91,0,1,1,15.11,24.71,100.94,100.94,0,0,1-22.5-2.11,41.57,41.57,0,0,1-1.52,10.65,61,61,0,0,1-3.95,10.45,9.29,9.29,0,0,0-5.68-5.3,11.94,11.94,0,0,0-14.63,8.45C307.24,134.83,310.14,141.46,316.38,143.6Z"></path></g><g id="Bottom_Standing_Sweatpants-2" data-name="Bottom/Standing/Sweatpants"><polygon id="Leg-3" data-name="Leg" class="cls-13" points="211.78 369.46 278.66 599.91 310.12 772.94 341.69 772.94 310.17 369.46 211.78 369.46"></polygon><path id="Leg-4" data-name="Leg" class="cls-13" d="M181.73,369.46c4.67,119.72,2.82,185,1.78,195.89s-7,83.73-47.38,211.24H169c53.51-122.33,72.19-195.17,78.32-211.24S271.56,484,298,369.46Z"></path><path id="Pant-3" data-name="Pant" class="cls-6" d="M210.35,369.46q26.09,119,90.26,379.75h46.18c3.41-178.46-11.1-295.91-36.23-379.75Z"></path><path id="Pant-4" data-name="Pant" class="cls-7" d="M181.5,369.46c4.57,119.72-7.28,237.66-44,381.61H186.8c53.61-120.5,92-237.87,118.29-381.61Z"></path><g id="Accessories_Shoe_Flat-Simple-3" data-name="Accessories/Shoe/Flat-Simple"><path id="Shoe-3" data-name="Shoe" class="cls-7" d="M131.45,800.33l1.81-29.21q15.92,4.65,39.87-3.66Q198.87,785.7,238,792.37h0a3.67,3.67,0,0,1,3,4.22l-.09.38-2.51,8.83H135.08Z"></path></g><g id="Accessories_Shoe_Flat-Simple-4" data-name="Accessories/Shoe/Flat-Simple"><path id="Shoe-4" data-name="Shoe" class="cls-7" d="M303.07,800.33l1.81-29.21q15.92,4.65,39.86-3.66,25.75,18.24,64.84,24.91h0a3.65,3.65,0,0,1,3,4.22c0,.13-.05.25-.08.38L410,805.8H306.69Z"></path></g></g><path class="cls-13" d="M342.42,266.82l68.43-23.17q18.82-15.75,35.74-23.31c3.3-.74,8.82-.57,2.21,7.48s-13.19,16.8-11.11,20,9.15.49,11.4,5.6q2.25,5.11-35.32,8.67L361.1,295.62Z"></path><g id="Body_Pointing-Forward" data-name="Body/Pointing-Forward"><path id="Skin-2" data-name="Skin" class="cls-14" d="M435.07,312.9l30.07-10.23q9.64-20.94,17.69-19.66c4.45-1.19-6,16.05,2.1,15.82s29.58-11,32.35-7.57c4.1,5.1-2.52,17.38-8.76,23-11.65,10.45-20.26,13.21-40.7,15.2q-16,1.57-36,11.25Z"></path><path id="Sleeve" class="cls-15" d="M313.37,253.85c21.9,3.62,51.86,4.15,86.44-10.11l7.41,29.39c-25.2,17.51-58.45,29.68-84.7,24.29C301.84,293.17,295.65,266.16,313.37,253.85Z"></path><path id="Clothes" class="cls-15" d="M335.1,302.72q33.27,14.82,120.35.11,12.92,45.63,8.22,63.27c-51.17,16.21-93.26,20-126.48,14.93-2.41,19.82-8.09,38.08-19.13,53.73-22.69,32.19-113.6-17.35-147.22-16.69-8.7-69.67,35.38-89.59,42.87-131.87,8.2-46.3,58-111,63.42-110L327,185C323.53,220.8,330.52,262.21,335.1,302.72Z"></path></g></g></g><path class="cls-3" d="M475.49,404.87l-6.4,108.23a45.07,45.07,0,0,1,9.2-4,44.45,44.45,0,0,1,34.93,4l-2.67-108.7Z"></path><line class="cls-16" x1="275.7" y1="106.07" x2="282.4" y2="92.12"></line></g></g></svg> 